<svg id="Logo" xmlns="http://www.w3.org/2000/svg" xmlns:xlink="http://www.w3.org/1999/xlink" viewBox="0 0 351.87 308.97">
  <defs>
    <style>
      .cls-1 {
        fill: none;
      }

      .cls-2 {
        fill: #323b8c;
      }

      .cls-3 {
        fill: #fff;
      }

      .cls-4 {
        clip-path: url(#clip-path);
      }

      .cls-5 {
        fill: url(#linear-gradient);
      }

      .cls-6 {
        fill: url(#linear-gradient-2);
      }

      .cls-7 {
        fill: url(#linear-gradient-3);
      }

      .cls-8 {
        fill: url(#linear-gradient-4);
      }

      .cls-9 {
        fill: url(#linear-gradient-5);
      }

      .cls-10 {
        clip-path: url(#clip-path-2);
      }

      .cls-11 {
        fill: url(#linear-gradient-6);
      }

      .cls-12 {
        fill: url(#linear-gradient-7);
      }

      .cls-13 {
        fill: url(#linear-gradient-8);
      }

      .cls-14 {
        fill: url(#linear-gradient-9);
      }

      .cls-15 {
        fill: url(#linear-gradient-10);
      }

      .cls-16 {
        clip-path: url(#clip-path-3);
      }

      .cls-17 {
        fill: url(#linear-gradient-11);
      }

      .cls-18 {
        fill: url(#linear-gradient-12);
      }

      .cls-19 {
        fill: url(#linear-gradient-13);
      }

      .cls-20 {
        fill: url(#linear-gradient-14);
      }

      .cls-21 {
        fill: url(#linear-gradient-15);
      }

      .cls-22 {
        fill: url(#linear-gradient-16);
      }

      .cls-23 {
        fill: url(#linear-gradient-17);
      }

      .cls-24 {
        fill: url(#linear-gradient-18);
      }

      .cls-25 {
        fill: url(#linear-gradient-19);
      }

      .cls-26 {
        fill: url(#linear-gradient-20);
      }

      .cls-27 {
        fill: url(#linear-gradient-21);
      }

      .cls-28 {
        fill: url(#linear-gradient-22);
      }

      .cls-29 {
        fill: url(#linear-gradient-23);
      }

      .cls-30 {
        fill: #4674b8;
      }

      .cls-31 {
        fill: url(#linear-gradient-24);
      }

      .cls-32 {
        fill: url(#linear-gradient-25);
      }

      .cls-33 {
        fill: url(#linear-gradient-26);
      }

      .cls-34 {
        fill: url(#linear-gradient-27);
      }

      .cls-35 {
        fill: url(#linear-gradient-28);
      }

      .cls-36 {
        fill: url(#linear-gradient-29);
      }

      .cls-37 {
        fill: url(#linear-gradient-30);
      }

      .cls-38 {
        fill: url(#linear-gradient-31);
      }

      .cls-39 {
        fill: url(#linear-gradient-32);
      }

      .cls-40 {
        fill: url(#linear-gradient-33);
      }

      .cls-41 {
        fill: url(#linear-gradient-34);
      }

      .cls-42 {
        fill: url(#linear-gradient-35);
      }

      .cls-43 {
        fill: url(#linear-gradient-36);
      }

      .cls-44 {
        fill: url(#linear-gradient-37);
      }

      .cls-45 {
        fill: url(#linear-gradient-38);
      }

      .cls-46 {
        fill: url(#linear-gradient-39);
      }

      .cls-47 {
        fill: url(#linear-gradient-40);
      }
    </style>
    <clipPath id="clip-path">
      <path class="cls-1" d="M308.35,175.7a28.64,28.64,0,0,1-7.75,6.56,33.29,33.29,0,0,1-17,4.93,29.37,29.37,0,0,1-9.9-1.72,21.9,21.9,0,0,1-2.86-1.26,33.82,33.82,0,0,1-13,9.12A30.55,30.55,0,0,1,246,195.77a29.54,29.54,0,0,1-6.49-.73,22.47,22.47,0,0,1-4-1.3,31.21,31.21,0,0,1-5.82,5.28c-6.28,4.44-12.7,6.69-19.06,6.69a26.15,26.15,0,0,1-9.07-1.61,43.75,43.75,0,0,1-6.74,5.66,266.42,266.42,0,0,1,60.07,54.79,137.47,137.47,0,0,0,54.25-88.36C308.84,176,308.59,175.87,308.35,175.7Z"/>
    </clipPath>
    <linearGradient id="linear-gradient" x1="176.15" y1="179.61" x2="267.06" y2="270.51" gradientUnits="userSpaceOnUse">
      <stop offset="0" stop-color="#9ec54c"/>
      <stop offset="0.17" stop-color="#98bf4b"/>
      <stop offset="0.39" stop-color="#86af48"/>
      <stop offset="0.66" stop-color="#699444"/>
      <stop offset="0.94" stop-color="#416f3e"/>
      <stop offset="1" stop-color="#38673d"/>
    </linearGradient>
    <linearGradient id="linear-gradient-2" x1="169.19" y1="221.48" x2="293.27" y2="221.48" gradientUnits="userSpaceOnUse">
      <stop offset="0" stop-color="#9ec54c"/>
      <stop offset="0.17" stop-color="#98c04b"/>
      <stop offset="0.39" stop-color="#88b149"/>
      <stop offset="0.63" stop-color="#6e9945"/>
      <stop offset="0.89" stop-color="#4a7740"/>
      <stop offset="1" stop-color="#38673d"/>
    </linearGradient>
    <linearGradient id="linear-gradient-3" x1="243.73" y1="187.59" x2="243.73" y2="235.13" gradientUnits="userSpaceOnUse">
      <stop offset="0" stop-color="#9ec54c"/>
      <stop offset="0.18" stop-color="#93ba4a"/>
      <stop offset="0.5" stop-color="#749e46"/>
      <stop offset="0.91" stop-color="#43713f"/>
      <stop offset="1" stop-color="#38673d"/>
    </linearGradient>
    <linearGradient id="linear-gradient-4" x1="252.14" y1="181.45" x2="252.14" y2="215.05" gradientUnits="userSpaceOnUse">
      <stop offset="0" stop-color="#9ec54c"/>
      <stop offset="0.19" stop-color="#9ac14b"/>
      <stop offset="0.39" stop-color="#8db64a"/>
      <stop offset="0.6" stop-color="#78a246"/>
      <stop offset="0.8" stop-color="#5b8842"/>
      <stop offset="1" stop-color="#38673d"/>
    </linearGradient>
    <linearGradient id="linear-gradient-5" x1="259.96" y1="170.31" x2="259.96" y2="193.8" gradientUnits="userSpaceOnUse">
      <stop offset="0" stop-color="#9ec54c"/>
      <stop offset="0.23" stop-color="#9bc24c"/>
      <stop offset="0.42" stop-color="#90b84a"/>
      <stop offset="0.6" stop-color="#7fa847"/>
      <stop offset="0.77" stop-color="#679244"/>
      <stop offset="0.93" stop-color="#47753f"/>
      <stop offset="1" stop-color="#38673d"/>
    </linearGradient>
    <clipPath id="clip-path-2">
      <path class="cls-1" d="M191.07,212q-1.93,1.06-4,2a37.61,37.61,0,0,1-15,3.27,33.39,33.39,0,0,1-3.34-.17A24.87,24.87,0,0,1,156,212.25a59.89,59.89,0,0,1-20.66,17.46,47.91,47.91,0,0,1-21.37,5.45,38.12,38.12,0,0,1-11.47-1.74,48.47,48.47,0,0,1-15,27.68,137.52,137.52,0,0,0,161.19,7.71C239.11,254.86,219.58,230.21,191.07,212Z"/>
    </clipPath>
    <linearGradient id="linear-gradient-6" x1="110.64" y1="301.52" x2="270.19" y2="301.52" xlink:href="#linear-gradient"/>
    <linearGradient id="linear-gradient-7" x1="90.9" y1="282.63" x2="261.36" y2="282.63" xlink:href="#linear-gradient"/>
    <linearGradient id="linear-gradient-8" x1="73.69" y1="262.13" x2="249.09" y2="262.13" xlink:href="#linear-gradient"/>
    <linearGradient id="linear-gradient-9" x1="56.92" y1="238.46" x2="232.63" y2="238.46" xlink:href="#linear-gradient"/>
    <linearGradient id="linear-gradient-10" x1="34.56" y1="208.84" x2="211.94" y2="208.84" xlink:href="#linear-gradient"/>
    <clipPath id="clip-path-3">
      <path class="cls-1" d="M59.42,102.88a21.13,21.13,0,0,1,4.65.52,19.87,19.87,0,0,1,5.56,2.18A18.23,18.23,0,0,1,85.2,96.74a18,18,0,0,1,2.61.19,20.6,20.6,0,0,1,9.11,3.68,21.6,21.6,0,0,1,9.34-5.93l1-.35L108.8,94l.13,0a22.55,22.55,0,0,1,3.75-.32,19.73,19.73,0,0,1,11.9,3.92l.89-.09c.66-.05,1.36-.08,2-.08s1.41,0,2.12.1a27.55,27.55,0,0,1,6.87-3l.73-.2.3-.07a28.91,28.91,0,0,1,6.86-.9h.33a22.3,22.3,0,0,1,10.43,2.43,19.37,19.37,0,0,1,4.69,3.42,41.17,41.17,0,0,1,9.56-4.28A26.54,26.54,0,0,1,177,93.7a22.32,22.32,0,0,1,6.46.94,30,30,0,0,1,2.79-4.29c3.88-4.89,9.2-10.28,19-12.87l.63-.15a36.33,36.33,0,0,1,7.85-.9,27.84,27.84,0,0,1,16.14,4.88,23.87,23.87,0,0,1,9.66,15,27.57,27.57,0,0,1,9.17-1.58,26.73,26.73,0,0,1,8.87,1.5,39,39,0,0,1,18.45-8.52,34.92,34.92,0,0,1,5.7-.48,29.83,29.83,0,0,1,13.23,3c.35-.24.72-.47,1.08-.7a137.54,137.54,0,0,0-252.79,17.7A22.47,22.47,0,0,1,48.53,106,20.5,20.5,0,0,1,59.42,102.88Z"/>
    </clipPath>
    <linearGradient id="linear-gradient-11" x1="175.32" y1="29.97" x2="175.32" y2="158" gradientTransform="translate(-48.1 -48.72) rotate(-11.14)" gradientUnits="userSpaceOnUse">
      <stop offset="0" stop-color="#fff12d"/>
      <stop offset="0.3" stop-color="#feee2d"/>
      <stop offset="0.49" stop-color="#fbe62d"/>
      <stop offset="0.65" stop-color="#f7d72d"/>
      <stop offset="0.79" stop-color="#f0c22d"/>
      <stop offset="0.92" stop-color="#e7a82e"/>
      <stop offset="1" stop-color="#e0922e"/>
    </linearGradient>
    <linearGradient id="linear-gradient-12" x1="210.29" y1="29.86" x2="210.29" y2="159.29" xlink:href="#linear-gradient-11"/>
    <linearGradient id="linear-gradient-13" x1="242.97" y1="31.96" x2="242.97" y2="163.92" xlink:href="#linear-gradient-11"/>
    <linearGradient id="linear-gradient-14" x1="258.18" y1="34.24" x2="258.18" y2="169.66" xlink:href="#linear-gradient-11"/>
    <linearGradient id="linear-gradient-15" x1="263.88" y1="102.86" x2="263.88" y2="187.06" xlink:href="#linear-gradient-11"/>
    <linearGradient id="linear-gradient-16" x1="262.99" y1="158.24" x2="262.99" y2="202.31" xlink:href="#linear-gradient-11"/>
    <linearGradient id="linear-gradient-17" x1="312.25" y1="209.43" x2="206.45" y2="207.01" xlink:href="#linear-gradient-11"/>
    <linearGradient id="linear-gradient-18" x1="140.48" y1="32.31" x2="140.48" y2="159.43" xlink:href="#linear-gradient-11"/>
    <linearGradient id="linear-gradient-19" x1="108.81" y1="33.93" x2="108.81" y2="163.13" xlink:href="#linear-gradient-11"/>
    <linearGradient id="linear-gradient-20" x1="93.22" y1="36.71" x2="93.22" y2="169.59" xlink:href="#linear-gradient-11"/>
    <linearGradient id="linear-gradient-21" x1="90.69" y1="111.27" x2="90.69" y2="187.86" xlink:href="#linear-gradient-11"/>
    <linearGradient id="linear-gradient-22" x1="89.68" y1="160.46" x2="89.68" y2="201.98" xlink:href="#linear-gradient-11"/>
    <linearGradient id="linear-gradient-23" x1="67.62" y1="208.35" x2="155.46" y2="208.35" gradientTransform="matrix(0.98, -0.18, 0.18, 0.98, -47.64, -51.87)" xlink:href="#linear-gradient-11"/>
    <linearGradient id="linear-gradient-24" x1="286.55" y1="100.65" x2="286.55" y2="175.49" gradientUnits="userSpaceOnUse">
      <stop offset="0" stop-color="#4674b8"/>
      <stop offset="0.21" stop-color="#4570b4"/>
      <stop offset="0.42" stop-color="#4165a7"/>
      <stop offset="0.64" stop-color="#3a5393"/>
      <stop offset="0.86" stop-color="#303a76"/>
      <stop offset="1" stop-color="#292660"/>
    </linearGradient>
    <linearGradient id="linear-gradient-25" x1="48.26" y1="156.9" x2="48.26" y2="258.18" xlink:href="#linear-gradient-24"/>
    <linearGradient id="linear-gradient-26" x1="186" y1="111.07" x2="186" y2="196.97" xlink:href="#linear-gradient-24"/>
    <linearGradient id="linear-gradient-27" x1="117.08" y1="142.66" x2="117.08" y2="214.88" xlink:href="#linear-gradient-24"/>
    <linearGradient id="linear-gradient-28" x1="206.9" y1="93.8" x2="206.9" y2="121.47" xlink:href="#linear-gradient-24"/>
    <linearGradient id="linear-gradient-29" x1="52.67" y1="123.22" x2="52.67" y2="145.55" xlink:href="#linear-gradient-24"/>
    <linearGradient id="linear-gradient-30" x1="34.98" y1="128.9" x2="34.98" y2="147.07" xlink:href="#linear-gradient-24"/>
    <linearGradient id="linear-gradient-31" x1="17.71" y1="122.31" x2="17.71" y2="147.5" xlink:href="#linear-gradient-24"/>
    <linearGradient id="linear-gradient-32" x1="58.23" y1="120.25" x2="58.23" y2="126.29" xlink:href="#linear-gradient-24"/>
    <linearGradient id="linear-gradient-33" x1="97.38" y1="120.22" x2="97.38" y2="139.57" xlink:href="#linear-gradient-24"/>
    <linearGradient id="linear-gradient-34" x1="71.04" y1="125.34" x2="71.04" y2="143.33" xlink:href="#linear-gradient-24"/>
    <linearGradient id="linear-gradient-35" x1="82.95" y1="123.59" x2="82.95" y2="141.24" xlink:href="#linear-gradient-24"/>
    <linearGradient id="linear-gradient-36" x1="83.36" y1="114.11" x2="83.36" y2="123.03" xlink:href="#linear-gradient-24"/>
    <linearGradient id="linear-gradient-37" x1="124.6" y1="114.8" x2="124.6" y2="132.5" xlink:href="#linear-gradient-24"/>
    <linearGradient id="linear-gradient-38" x1="141.05" y1="110.66" x2="141.05" y2="128.65" xlink:href="#linear-gradient-24"/>
    <linearGradient id="linear-gradient-39" x1="110.86" y1="117.92" x2="110.86" y2="135.27" xlink:href="#linear-gradient-24"/>
    <linearGradient id="linear-gradient-40" x1="110.98" y1="111.04" x2="110.98" y2="117.14" xlink:href="#linear-gradient-24"/>
  </defs>
  <title>logo-betim</title>
  <g>
    <circle class="cls-2" cx="173.41" cy="154.49" r="154.49"/>
    <circle class="cls-3" cx="172.73" cy="152.87" r="149.87"/>
    <g>
      <g class="cls-4">
        <g>
          <path class="cls-5" d="M164.7,191.06s60.28,28.61,96.14,80l17.67-12S224.26,203.62,164.7,191.06Z"/>
          <path class="cls-6" d="M169.19,189.53S233.6,208.29,278,253.43l15.28-14.67S230.06,192.57,169.19,189.53Z"/>
          <path class="cls-7" d="M182.15,188.29s62.9,8.88,111.13,46.84l12-16.79S239.37,182.16,182.15,188.29Z"/>
          <path class="cls-8" d="M189,186.19s63.52-1.08,117.1,28.86l9.24-18.46S244.52,171.18,189,186.19Z"/>
          <path class="cls-9" d="M196.79,184.56S259.27,173.07,317,193.8l6.09-19.73S249.12,160.64,196.79,184.56Z"/>
        </g>
      </g>
      <g class="cls-10">
        <g>
          <path class="cls-11" d="M270.19,263.19S181.09,294,129.25,344L110.64,318.5s68.46-43.94,155.53-59.42Z"/>
          <path class="cls-12" d="M261.36,255.11s-95.18,17.83-158.5,59.63l-12-27.62s78.15-33.59,167.53-36.62Z"/>
          <path class="cls-13" d="M249.09,247.45s-97.93,4.33-170.42,36.63l-5-28.81s85.06-22.18,173.65-12.76Z"/>
          <path class="cls-14" d="M232.63,237.47S134.91,231,56.92,255l.67-29S146,213.37,231.86,232.4Z"/>
          <path class="cls-15" d="M211.83,223.19s-95.75-16-177.26.1l5.73-28.73s89.9-3.79,171.65,23.52Z"/>
        </g>
      </g>
      <g class="cls-16">
        <g>
          <polygon class="cls-17" points="117.37 -40.44 156.28 94.19 161.3 93.46 145.81 -46.82 117.37 -40.44"/>
          <polygon class="cls-18" points="165.18 92.18 162.97 -50.2 193.59 -55.97 169.3 93.43 165.18 92.18"/>
          <polygon class="cls-19" points="174.02 93.79 211.88 -57.51 249.92 -65 178.98 96.69 174.02 93.79"/>
          <polygon class="cls-20" points="182.11 99.43 273.53 -67.07 282.88 -19.59 185.18 101.93 182.11 99.43"/>
          <polygon class="cls-21" points="188 107.05 293.03 -4.8 299.44 27.77 190.08 109.74 188 107.05"/>
          <polygon class="cls-22" points="192.25 114.22 299.19 47.45 304.42 74.05 192.44 117.8 192.25 114.22"/>
          <polygon class="cls-23" points="195.14 119.85 308.36 87.48 310.61 98.91 195.48 121.59 195.14 119.85"/>
          <polygon class="cls-24" points="148.37 97.3 151.41 95.67 101.75 -35.82 70.92 -29.75 148.37 97.3"/>
          <polygon class="cls-25" points="144.04 100.22 140.7 102.94 17.17 -16.84 53.62 -24.53 144.04 100.22"/>
          <polygon class="cls-26" points="134.61 111.37 137.61 106.91 -5.46 -9.79 3.89 37.69 134.61 111.37"/>
          <polygon class="cls-27" points="134.04 120.26 133.46 115.99 8.89 59.17 15.02 90.25 134.04 120.26"/>
          <polygon class="cls-28" points="133.37 128.66 131.5 123.09 18.4 104.82 23.49 130.67 133.37 128.66"/>
          <polygon class="cls-29" points="129.45 133.96 128.86 130.72 24.56 140.61 26.68 152.33 129.45 133.96"/>
        </g>
      </g>
      <path class="cls-2" d="M351.47,153.71a10,10,0,0,0-6.19-6.2,4.87,4.87,0,0,1-.56-.28h0a22.91,22.91,0,0,1-1-5.52c-.13-4.25-.11-8.65-.09-12.91,0-1.92,0-3.85,0-5.77a30.31,30.31,0,0,0-2.56-12.33,23.41,23.41,0,0,0-21.72-13.94,26.67,26.67,0,0,0-9.76,1.88,33,33,0,0,0-11,7.09,20.89,20.89,0,0,0-13.81-5,26.43,26.43,0,0,0-4.31.37,31.67,31.67,0,0,0-18.34,10.44,18.32,18.32,0,0,0-2.7-1.61,17.64,17.64,0,0,0-7.67-1.7,20.19,20.19,0,0,0-13.64,5.51,26.18,26.18,0,0,0-7.86,11.83,21,21,0,0,0-3.38-2.89c.59-.51,1.16-1,1.7-1.59a20.79,20.79,0,0,0,5.95-16.25,15.68,15.68,0,0,0-6.43-11.56,19.51,19.51,0,0,0-11.31-3.38,27.83,27.83,0,0,0-6,.7l-.31.08c-7,1.84-10.89,5.33-14.58,10a26.14,26.14,0,0,0-5,12.39,12.54,12.54,0,0,0-1.7-2.18,12.76,12.76,0,0,0-9.18-3.68,18.1,18.1,0,0,0-5.18.81c-5,1.48-9.67,4.28-14.84,8.8l-.08.08a10.42,10.42,0,0,0-5.68-8.62,13.66,13.66,0,0,0-6.46-1.47h-.27a20.46,20.46,0,0,0-4.89.64l-.23.06-.52.14a19.05,19.05,0,0,0-7.16,3.87,15.47,15.47,0,0,0-4.19-.58c-.45,0-.91,0-1.37.06a18.06,18.06,0,0,0-4.32.9,10.22,10.22,0,0,0-1.53-1.82,11,11,0,0,0-7.6-2.89,14,14,0,0,0-2.33.2l-.82.17-.6.21a13.11,13.11,0,0,0-6.3,4.25,11.77,11.77,0,0,0-2.28,4.53,13.19,13.19,0,0,0-4.4,1.6,9.65,9.65,0,0,0-2.45-4.31,12.17,12.17,0,0,0-6.92-3.48,9.51,9.51,0,0,0-1.38-.1,9.7,9.7,0,0,0-8.41,4.93,18.34,18.34,0,0,0-.93,1.94l-.08.2a14.24,14.24,0,0,1-1.67,3,11,11,0,0,0-.8,1.23,17.54,17.54,0,0,0-3.88.55,10.94,10.94,0,0,0-7.24-5.35,12.63,12.63,0,0,0-2.78-.31,12.28,12.28,0,0,0-8,3l0,0c-.2,0-.4,0-.61,0a10.35,10.35,0,0,0-1.21.07,14.23,14.23,0,0,0-9,4.79c-.24.27-.46.56-.67.85a11.61,11.61,0,0,0-3.69.8,13,13,0,0,0-3.33-.44A13.17,13.17,0,0,0,29.54,127a12.44,12.44,0,0,0-11.84-8.61,13.5,13.5,0,0,0-10.26,4.8,9,9,0,0,0-2.05,7.19,8.75,8.75,0,0,0,1.77,4q0,7.23,0,14.46v1.85a8.46,8.46,0,0,0,8.22,8.6l.57,0c.64,0,1.28,0,1.92.11h.06a30.82,30.82,0,0,0-3.9,2.34c-4.9,3.47-7.38,8.94-7.37,16.27q0,25.19,0,50.4A53.67,53.67,0,0,0,9.62,247c4,11.13,11.64,18.76,22,22a39.1,39.1,0,0,0,12,1.77,53,53,0,0,0,5.75-.33A58.36,58.36,0,0,0,78.87,259c12.2-9.16,18.6-21.57,18.62-36l.56.33a32.55,32.55,0,0,0,15.89,4.11,42.32,42.32,0,0,0,18.85-4.85c7.89-3.93,14.85-10.18,20.69-18.57.58-.83,1.19-1.74,1.8-2.72a18.51,18.51,0,0,0,14,8.1,27.7,27.7,0,0,0,2.77.14,32,32,0,0,0,12.76-2.8,38.77,38.77,0,0,0,15.27-11.66A14,14,0,0,0,202,196.2a20.58,20.58,0,0,0,8.55,1.85c5.17,0,10.49-1.9,15.79-5.65a23.62,23.62,0,0,0,7.46-8.3,15.45,15.45,0,0,0,6.89,3.43,23.85,23.85,0,0,0,5.24.59h0a24.92,24.92,0,0,0,9.63-2c7.68-3.2,11.74-7.69,13.81-12a15.18,15.18,0,0,0,6.18,4.07,23.7,23.7,0,0,0,8,1.39,27.72,27.72,0,0,0,14.14-4.15A20.26,20.26,0,0,0,307,164.66c4.31,5.55,11.33,9,19.56,9a30.19,30.19,0,0,0,8.44-1.22c6.66-1.94,11.66-5.37,14.87-10.21A9.88,9.88,0,0,0,351.47,153.71Z"/>
      <g>
        <path class="cls-30" d="M39.79,267.88a40.53,40.53,0,0,1-12.41-1.83c-10.84-3.42-18.77-11.36-23-22.93a55.1,55.1,0,0,1-3-19q0-25.2,0-50.4c0-7.83,2.68-13.7,8-17.46l.15-.11a9.88,9.88,0,0,1-7.63-9.78v-3q0-6.39,0-12.78a10.18,10.18,0,0,1-1.76-4.26,10.39,10.39,0,0,1,2.36-8.34,14.54,14.54,0,0,1,8.64-5.07,14,14,0,0,1,11.43,2.78,13.72,13.72,0,0,1,3.93,5,14.36,14.36,0,0,1,5.54-1.1,14.69,14.69,0,0,1,3.24.37,13,13,0,0,1,3-.68l.35-.42a15.67,15.67,0,0,1,9.95-5.26,10.61,10.61,0,0,1,1.51-.08,13.74,13.74,0,0,1,11.6-2.62A12.37,12.37,0,0,1,69.3,116a19.48,19.48,0,0,1,2.34-.31c.15-.24.31-.47.48-.69a12.84,12.84,0,0,0,1.49-2.67l.08-.18a19.77,19.77,0,0,1,1-2.09A11.23,11.23,0,0,1,86,104.52a13.61,13.61,0,0,1,7.74,3.9,10.8,10.8,0,0,1,2.24,3.3,14.28,14.28,0,0,1,2.43-.81,13.16,13.16,0,0,1,2.3-4.2,14.57,14.57,0,0,1,7-4.73l.75-.25.82-.17a15.64,15.64,0,0,1,2.62-.23,12.46,12.46,0,0,1,8.58,3.27,10.28,10.28,0,0,1,1.11,1.2,19.15,19.15,0,0,1,3.65-.65,17.32,17.32,0,0,1,5.32.38,20.54,20.54,0,0,1,7.11-3.67l.81-.21a21.77,21.77,0,0,1,5.21-.69h.28a15.08,15.08,0,0,1,7.14,1.64,11.83,11.83,0,0,1,6,7.18,39.13,39.13,0,0,1,13.53-7.54c6.09-1.83,11.82-.65,15.63,3.06a27.65,27.65,0,0,1,4.71-9.91c3.87-4.88,8-8.53,15.34-10.47l.34-.08c7.22-1.6,13.45-.58,18.48,2.9a17.14,17.14,0,0,1,7.05,12.62,21.62,21.62,0,0,1-2.1,11.34,32.25,32.25,0,0,1,3.27-3.38,21.62,21.62,0,0,1,14.61-5.88,19.15,19.15,0,0,1,8.31,1.85,19.49,19.49,0,0,1,1.84,1,32.88,32.88,0,0,1,18.32-10,23.36,23.36,0,0,1,18.29,4.13,34.56,34.56,0,0,1,10.56-6.52,28.12,28.12,0,0,1,10.29-2,24.84,24.84,0,0,1,23,14.8,31.75,31.75,0,0,1,2.69,12.92c0,1.93,0,3.85,0,5.78,0,4.29,0,8.66.09,12.86a20,20,0,0,0,.78,4.54c3.61,1.51,5.93,3.89,6.91,7.07a11.25,11.25,0,0,1-1.77,9.73c-3.41,5.13-8.68,8.77-15.67,10.81a31.61,31.61,0,0,1-8.84,1.28A26.21,26.21,0,0,1,303.62,163a22.59,22.59,0,0,1-9,9.26c-7.73,4.56-15.87,5.55-23.36,2.87A17.15,17.15,0,0,1,266,172.1c-2.79,4.69-7.36,8.38-13.63,11a25.75,25.75,0,0,1-15.76,1.48,17.24,17.24,0,0,1-6.15-2.66,25.68,25.68,0,0,1-7,7.31c-5.56,3.93-11.15,5.92-16.63,5.92a22,22,0,0,1-9.15-2q-.51-.23-1-.5a40.4,40.4,0,0,1-15,11.1,32.49,32.49,0,0,1-16.26,2.78,20.07,20.07,0,0,1-13.77-7l-.7,1c-6,8.59-13.13,15-21.24,19-12.25,6.11-24.2,6.59-34.56,1.51-.69,13.85-7.27,25.81-19.14,34.72A59.79,59.79,0,0,1,45.7,267.55,54.32,54.32,0,0,1,39.79,267.88ZM13.87,115.52a11.55,11.55,0,0,0-2.19.21,11.67,11.67,0,0,0-6.94,4.05,7.51,7.51,0,0,0-1.74,6,7.26,7.26,0,0,0,1.48,3.33l.31.4v.5q0,6.63,0,13.27v3a7,7,0,0,0,6.82,7.14l.8,0c.59,0,1.19,0,1.79.11l4.89.52-4.33,2.23A29.44,29.44,0,0,0,11,158.63c-4.49,3.18-6.76,8.25-6.75,15.08q0,25.19,0,50.4a52.24,52.24,0,0,0,2.86,18c3.86,10.69,11.15,18,21.09,21.15a40.9,40.9,0,0,0,17.12,1.38,56.94,56.94,0,0,0,28.79-11.17c11.79-8.85,18-20.88,18-34.8v-2.52l2.72,1.58c9.88,5.45,21.4,5.21,33.39-.77,7.67-3.82,14.45-9.91,20.15-18.1.56-.81,1.16-1.7,1.77-2.66l1.19-1.9,1.25,1.85a17.1,17.1,0,0,0,12.94,7.47,29.58,29.58,0,0,0,14.81-2.55,37.44,37.44,0,0,0,14.7-11.23l.83-1.05,1.12.74a12.77,12.77,0,0,0,1.74,1c7,3.17,15,1.93,22.9-3.66a22.19,22.19,0,0,0,7-7.79l.86-1.64,1.39,1.23a14,14,0,0,0,6.25,3.1,22.83,22.83,0,0,0,14-1.33c6.35-2.65,10.74-6.46,13.06-11.32l.94-2,1.46,1.62a13.8,13.8,0,0,0,5.59,3.68c6.67,2.38,13.92,1.48,20.9-2.64a18.88,18.88,0,0,0,8.66-9.95l.87-2.55,1.65,2.13c4.16,5.36,10.87,8.43,18.41,8.43a28.74,28.74,0,0,0,8-1.17c6.32-1.84,11-5.07,14.06-9.62a8.4,8.4,0,0,0,1.41-7.28,8.54,8.54,0,0,0-5.35-5.28l-.38-.17h-.73l-.3-1.06a24.29,24.29,0,0,1-1.06-5.87c-.13-4.25-.11-8.63-.09-12.88,0-2,0-3.92,0-5.84a28.86,28.86,0,0,0-2.44-11.74,22,22,0,0,0-20.39-13.07,25.23,25.23,0,0,0-9.22,1.78,31.71,31.71,0,0,0-10.54,6.78l-1,.92-1-.86c-4.52-3.86-10.48-5.36-16.94-4.29a30.28,30.28,0,0,0-17.5,10l-.87,1-1.06-.76a16.92,16.92,0,0,0-2.49-1.48,16.16,16.16,0,0,0-7-1.55,18.76,18.76,0,0,0-12.66,5.14,24.75,24.75,0,0,0-7.44,11.18l-.74,2.37-1.7-1.8a19.59,19.59,0,0,0-3.15-2.69l-1.55-1.06,1.42-1.23c.56-.49,1.1-1,1.62-1.51a19.31,19.31,0,0,0,5.54-15.1,14.25,14.25,0,0,0-5.81-10.5c-4.35-3-9.84-3.86-16.17-2.45l-.29.07c-6.57,1.73-10.27,5-13.78,9.46a24.68,24.68,0,0,0-4.69,11.66l-.5,4.09-2.18-3.49a11.25,11.25,0,0,0-1.5-1.93c-3-3.08-7.76-4-12.91-2.5-4.75,1.42-9.29,4.12-14.3,8.5l-2.2,1.92-.29-2.84a9,9,0,0,0-4.9-7.43,12.24,12.24,0,0,0-5.79-1.31h-.26a18.9,18.9,0,0,0-4.52.6l-.72.19a17.62,17.62,0,0,0-6.61,3.57l-.59.51-.75-.21a14.33,14.33,0,0,0-5.05-.48,16.55,16.55,0,0,0-4,.83l-1,.35-.62-.91a8.7,8.7,0,0,0-1.31-1.56,10,10,0,0,0-8.71-2.32l-1.19.32a11.72,11.72,0,0,0-5.65,3.79,10.27,10.27,0,0,0-2,4l-.23.93-.94.15A11.76,11.76,0,0,0,95.83,115l-1.63.93-.49-1.81a8.16,8.16,0,0,0-2.08-3.67,10.71,10.71,0,0,0-6.09-3.07,8.28,8.28,0,0,0-8.31,4.11,16.54,16.54,0,0,0-.85,1.77l-.09.21a15.74,15.74,0,0,1-1.84,3.28,9.66,9.66,0,0,0-.69,1.07l-.4.71-.82,0a16.28,16.28,0,0,0-3.56.5l-1.09.29-.55-1A9.46,9.46,0,0,0,61,113.74a10.87,10.87,0,0,0-9.52,2.36l-.45.38-.85,0a6.69,6.69,0,0,0-1.31,0,12.8,12.8,0,0,0-8.12,4.31,9.27,9.27,0,0,0-.58.74l-.41.56-.69,0a10.15,10.15,0,0,0-3.23.7l-.45.18-.47-.13A11.53,11.53,0,0,0,26.41,124l-1.52.83-.55-1.64a11,11,0,0,0-10.47-7.62Zm211.45,2.69.5.41q.38-.91.82-1.79-.41.47-.85.92Z"/>
        <path class="cls-3" d="M347.64,149.35a10,10,0,0,0-6.19-6.2,4.87,4.87,0,0,1-.56-.28h0a22.91,22.91,0,0,1-1-5.52c-.13-4.25-.11-8.65-.09-12.91,0-1.92,0-3.85,0-5.77a30.31,30.31,0,0,0-2.56-12.33A23.41,23.41,0,0,0,315.53,92.4a26.67,26.67,0,0,0-9.76,1.88,33,33,0,0,0-11,7.09,20.89,20.89,0,0,0-13.81-5,26.43,26.43,0,0,0-4.31.37,31.67,31.67,0,0,0-18.34,10.44,18.32,18.32,0,0,0-2.7-1.61,17.64,17.64,0,0,0-7.67-1.7,20.19,20.19,0,0,0-13.64,5.51,26.18,26.18,0,0,0-7.86,11.83,21,21,0,0,0-3.38-2.89c.59-.51,1.16-1,1.7-1.59a20.79,20.79,0,0,0,5.95-16.25,15.68,15.68,0,0,0-6.43-11.56A19.51,19.51,0,0,0,213,85.55a27.83,27.83,0,0,0-6,.7l-.31.08c-7,1.84-10.89,5.33-14.58,10a26.14,26.14,0,0,0-5,12.39,12.54,12.54,0,0,0-1.7-2.18,12.76,12.76,0,0,0-9.18-3.68,18.1,18.1,0,0,0-5.18.81c-5,1.48-9.67,4.28-14.84,8.8l-.08.08a10.42,10.42,0,0,0-5.68-8.62,13.66,13.66,0,0,0-6.46-1.47h-.27a20.46,20.46,0,0,0-4.89.64l-.23.06-.52.14a19.05,19.05,0,0,0-7.16,3.87,15.47,15.47,0,0,0-4.19-.58c-.45,0-.91,0-1.37.06a18.06,18.06,0,0,0-4.32.9,10.22,10.22,0,0,0-1.53-1.82,11,11,0,0,0-7.6-2.89,14,14,0,0,0-2.33.2l-.82.17-.6.21a13.11,13.11,0,0,0-6.3,4.25,11.77,11.77,0,0,0-2.28,4.53,13.19,13.19,0,0,0-4.4,1.6,9.65,9.65,0,0,0-2.45-4.31A12.17,12.17,0,0,0,85.75,106a9.51,9.51,0,0,0-1.38-.1A9.7,9.7,0,0,0,76,110.79a18.34,18.34,0,0,0-.93,1.94l-.08.2a14.24,14.24,0,0,1-1.67,3,11,11,0,0,0-.8,1.23,17.54,17.54,0,0,0-3.88.55,10.94,10.94,0,0,0-7.24-5.35,12.63,12.63,0,0,0-2.78-.31,12.28,12.28,0,0,0-8,3l0,0c-.2,0-.4,0-.61,0a10.35,10.35,0,0,0-1.21.07,14.23,14.23,0,0,0-9,4.79c-.24.27-.46.56-.67.85a11.61,11.61,0,0,0-3.69.8A13,13,0,0,0,32,121a13.17,13.17,0,0,0-6.31,1.63,12.44,12.44,0,0,0-11.84-8.61,13,13,0,0,0-2.47.24,13.1,13.1,0,0,0-7.79,4.56A9,9,0,0,0,1.56,126a8.75,8.75,0,0,0,1.77,4q0,7.23,0,14.46v1.85a8.46,8.46,0,0,0,8.22,8.6l.57,0c.64,0,1.28,0,1.92.11h.06a30.82,30.82,0,0,0-3.9,2.34c-4.9,3.47-7.38,8.94-7.37,16.27q0,25.19,0,50.4a53.67,53.67,0,0,0,2.95,18.51c4,11.13,11.64,18.76,22,22a39.1,39.1,0,0,0,12,1.77,53,53,0,0,0,5.75-.33A58.36,58.36,0,0,0,75,254.65c12.2-9.16,18.6-21.57,18.62-36l.56.33a32.55,32.55,0,0,0,15.89,4.11A42.32,42.32,0,0,0,129,218.28c7.89-3.93,14.85-10.18,20.69-18.57.58-.83,1.19-1.74,1.8-2.72a18.51,18.51,0,0,0,14,8.1,27.7,27.7,0,0,0,2.77.14,32,32,0,0,0,12.76-2.8,38.77,38.77,0,0,0,15.27-11.66,14,14,0,0,0,1.94,1.07,20.58,20.58,0,0,0,8.55,1.85c5.17,0,10.49-1.9,15.79-5.65a23.62,23.62,0,0,0,7.46-8.3,15.45,15.45,0,0,0,6.89,3.43,23.85,23.85,0,0,0,5.24.59h0a24.92,24.92,0,0,0,9.63-2c7.68-3.2,11.74-7.69,13.81-12a15.18,15.18,0,0,0,6.18,4.07,23.7,23.7,0,0,0,8,1.39A27.72,27.72,0,0,0,293.89,171a20.26,20.26,0,0,0,9.29-10.73c4.31,5.55,11.33,9,19.56,9a30.19,30.19,0,0,0,8.44-1.22c6.66-1.94,11.66-5.37,14.87-10.21A9.88,9.88,0,0,0,347.64,149.35Z"/>
      </g>
      <g>
        <path class="cls-31" d="M233.47,134.52c.21,6.06.2,12.19.15,18.32,0,5.08-.34,10.22-.32,15.29,0,3.78,1.84,6.18,5.4,7a15.94,15.94,0,0,0,9.88-1c6.14-2.56,11.07-6.94,10.73-14.17s-.47-14.52-.53-21.82a30.78,30.78,0,0,1,.82-6.69A13.26,13.26,0,0,1,263.1,125c2.61-2.7,5.35-2.66,6.47.22a12.32,12.32,0,0,1,.72,4.47c-.07,9.34-.22,18.7-.38,28.06-.07,3.83,1,6.94,4.64,8.24,4.86,1.74,10,1,15.16-2.09,3.84-2.26,6.17-5.31,6.16-9.29,0-4.5-.31-8.95-.42-13.43-.1-4.24-.22-8.49-.11-12.75a14.41,14.41,0,0,1,2.35-7.17,11.75,11.75,0,0,1,1.47-1.88c1.2-1.25,2.62-2.16,4.36-1.87a3.42,3.42,0,0,1,2.75,3,19.59,19.59,0,0,1,.38,4c.09,7.65-.14,15.34.25,22.94.53,10.3,11.06,15.85,22,12.67,4.26-1.24,7.94-3.29,10.29-6.85,1-1.47.84-1.82-.86-2.52a8.61,8.61,0,0,1-5.36-5.66,31.3,31.3,0,0,1-1.31-7.52c-.19-6.29-.07-12.6-.08-18.91a22,22,0,0,0-1.85-9C326.3,102,317.5,98.55,308.78,102a26.5,26.5,0,0,0-13.49,12.13c-.24.42-.5.84-.8,1.33a46.3,46.3,0,0,0-2.35-4.63c-3.09-4.7-7.81-7-14.16-5.91a23.72,23.72,0,0,0-14.2,8.55c-2.06,2.44-3.71,5.19-5.56,7.85a.92.92,0,0,1-.17-.27c-.13-.37-.23-.75-.35-1.12a11.3,11.3,0,0,0-5.75-6.92s-5.84-3.1-12.15,2.56C232.65,121.93,233.31,128.29,233.47,134.52Z"/>
        <path class="cls-32" d="M68.62,197.44l1.49.4c9.47,2.53,15,8.77,15.29,19.51.39,12.19-4.8,22.81-15.32,30.7a50.53,50.53,0,0,1-25.45,9.85,34.56,34.56,0,0,1-14.33-1.1c-8-2.53-13.62-8.3-16.75-17a45.87,45.87,0,0,1-2.46-15.71q0-25.21,0-50.41c0-3.85.81-7.35,3.89-9.53a18.55,18.55,0,0,1,6.18-3c4.45-1.06,9-1.95,13.48-2.6,4.75-.69,9.55-1.22,14.3-1.53,7.26-.46,14.3.05,20.71,3,8.94,4.08,11.5,13.52,8.37,23.63a27.58,27.58,0,0,1-6.33,11.06C70.84,195.62,69.85,196.36,68.62,197.44ZM38,212.63c0,5.09-.05,10,0,14.94a37.63,37.63,0,0,0,.54,6.28c1.67,8.94,10,9.48,15.5,5.17,3-2.31,4.15-5.6,4.85-9.11,1.46-7.32-.87-13.81-6-16.62C48.3,210.81,43.32,211,38,212.63Zm0-32.29v17.52c4.56-.41,8.76-1.75,12.12-5.57,3.77-4.29,4.38-9.21,3.21-14.16a8.4,8.4,0,0,0-9.62-6.68C37.71,172.11,38,180.35,38,180.35Z"/>
        <path class="cls-33" d="M155.68,149.13c-6.12,1.4-7.88.46-7.81-3.95s1.83-6.18,7.51-7.87a39.5,39.5,0,0,0,0-4.3c-.62-5.45,1.52-10.25,6.24-14.38,3.62-3.17,7.47-5.82,11.78-7.11,4.79-1.43,7.62.52,7.57,5.3,0,3.94-.26,7.92-.4,11.88,0,.53,0,1.05-.08,1.75,1.67-.46,3.27-.9,4.87-1.35,6.53-1.85,13.05-3.78,19.58-5.45,6.84-1.75,12.5-.67,16.31,4.09a11.92,11.92,0,0,1,2.59,7.48c.14,11.48.21,23,.33,34.45,0,4.57-2,8.51-6.35,11.61-5.71,4-11.19,5.28-16.17,3a5.73,5.73,0,0,1-3.27-5.64c0-6.26.23-12.58.36-18.87.07-3.69.22-7.4.15-11-.15-7.58-4.29-10.55-12.05-8.7-2.08.49-4.16,1.16-6.33,1.78v1.62c0,8,0,16.07,0,24.09a19.39,19.39,0,0,0,1.26,8c1.17,2.56,3,3.26,6.11,2.29,1.35-.42,2.71-1,4.06-1.44,2.23-.73,3.07.19,2,2.41a31,31,0,0,1-16.24,16.1,22.76,22.76,0,0,1-11.42,2c-6-.61-9.2-4.47-10.26-10.48a30,30,0,0,1-.33-5.05c0-10.18,0-20.38,0-30.57Z"/>
        <path class="cls-34" d="M110.52,188.26c1.83,4.71,5.37,6.94,10.31,7.05,5.74.13,11.45-2.2,17-5.72,2.67-1.69,5.2-3.8,7.82-5.64a10,10,0,0,1,2.15-.89,7,7,0,0,1,.07,2.23,32.71,32.71,0,0,1-5,9.7c-4.76,6.84-10.56,12.39-17.6,15.9-9.92,4.95-19,5.33-27.08.9-7.15-3.94-11.42-10.69-12.69-19.86C84,181.19,86.79,170.86,94,161.15a44.31,44.31,0,0,1,19.59-15.06c6.67-2.67,13.26-4,19.64-3.22,6.92.8,12.39,3.7,14.85,10.27,2.92,7.8-.44,18.55-10.31,25.54a50.21,50.21,0,0,1-19.14,8.17C115.92,187.39,113.27,187.8,110.52,188.26Zm-1.12-11.2a24,24,0,0,0,10.47-3.71,12.15,12.15,0,0,0,5.88-10.9,4.18,4.18,0,0,0-2.18-3.71c-2.72-1.45-6.59,0-9.34,3.62C110.75,166.92,110,171.89,109.4,177.06Z"/>
        <path class="cls-35" d="M198.5,101.45c3.16-4,5.77-6,10.24-7.15,4-.9,7.81-.68,10.84,1.42,3.91,2.71,4.19,10.23-.72,15.24a22,22,0,0,1-10.18,5.88c-7,1.82-10.45,2.75-17.41,4.64a13.16,13.16,0,0,0,4.25-9.77A17.73,17.73,0,0,1,198.5,101.45Z"/>
        <g>
          <g>
            <path class="cls-36" d="M45.23,132.19c-.53,0-1,.19-1.45-.18a1.54,1.54,0,0,1-.44-1.14,1.82,1.82,0,0,1,.48-1.43,1.78,1.78,0,0,1,1.38-.33c0-.2,0-.37,0-.54,0-.61,0-1.22,0-1.83a2.52,2.52,0,0,1,.64-1.42,6,6,0,0,1,3.83-2.08,1.35,1.35,0,0,1,1.65,1.26,10.78,10.78,0,0,1,0,1.5c0,.85-.06,1.69-.1,2.59l.29,0c1.85-.19,3.7-.41,5.54-.62a4.39,4.39,0,0,1,3,.63,3.66,3.66,0,0,1,1.7,2.93c.09,1.38.07,2.78.08,4.17q0,2.64,0,5.27a3.75,3.75,0,0,1-.26,1.57A3.28,3.28,0,0,1,60,144.2a3.58,3.58,0,0,1-2.77.14,2.38,2.38,0,0,1-1.53-2.6q.08-3.46.16-6.93a5.28,5.28,0,0,0-.2-1.72,2.2,2.2,0,0,0-1.94-1.62,7.18,7.18,0,0,0-2.12.09c-.2,0-.26.12-.26.34,0,2.17,0,4.35,0,6.53a6.11,6.11,0,0,0,.23,1.91c.17.53.41,1,1,1.11a3.88,3.88,0,0,0,1,0c.23,0,.47-.08.7-.11.45-.05.61.21.43.68a5.7,5.7,0,0,1-4.72,3.53,4.33,4.33,0,0,1-3-.73,3.77,3.77,0,0,1-1.14-1.41,6,6,0,0,1-.53-2.72q0-4.07,0-8.15Z"/>
            <path class="cls-37" d="M36.3,132c.06-.31.1-.6.17-.88a2.72,2.72,0,0,1,1.31-1.69,3.49,3.49,0,0,1,2-.56,3.2,3.2,0,0,1,2.14.84,2.44,2.44,0,0,1,.7,1.85c0,1.07-.07,2.13-.09,3.2,0,1.9-.22,3.81-.08,5.69a5.38,5.38,0,0,0,.53,2.16,1.89,1.89,0,0,0,.78.8c.46.25.52.49.18,1A4.43,4.43,0,0,1,40,146.55a3.44,3.44,0,0,1-2.4-1,4.22,4.22,0,0,1-1.07-1.95l-.1-.35a1.57,1.57,0,0,0-.2.24,7.9,7.9,0,0,1-1.8,2.41,4.45,4.45,0,0,1-3,1.18,4.26,4.26,0,0,1-2.82-1,6.2,6.2,0,0,1-1.43-1.76A10.88,10.88,0,0,1,26,140.66a14.14,14.14,0,0,1-.11-3.81,12.32,12.32,0,0,1,.78-3.27,7.24,7.24,0,0,1,2.54-3.42,4.87,4.87,0,0,1,2.86-.87,4.25,4.25,0,0,1,2.22.61A5.27,5.27,0,0,1,36,131.64l.21.33S36.25,132,36.3,132Zm0,3.88a3.65,3.65,0,0,0-.8-1.79,1.56,1.56,0,0,0-2.25-.11,3.26,3.26,0,0,0-.92,1.65,9.3,9.3,0,0,0-.11,4.44,4,4,0,0,0,.79,1.78,1.57,1.57,0,0,0,2.3.12,3.53,3.53,0,0,0,.95-1.77,7.5,7.5,0,0,0,.27-2.32C36.47,137.16,36.29,135.91,36.29,135.91Z"/>
            <path class="cls-38" d="M18.25,141.57c.69,0,1.35,0,2,0,.85-.07,1.69-.19,2.53-.35a3.53,3.53,0,0,0,1.7-.76c.3-.26.46-.2.73.23a3,3,0,0,1,.46,1.3,5,5,0,0,1-.7,3.39,4.51,4.51,0,0,1-2.45,1.79,7.62,7.62,0,0,1-3.42.27c-1.39-.18-2.78-.39-4.17-.54-1-.11-2-.13-3-.17-.25,0-.31-.09-.31-.35q0-8.78,0-17.56a5.68,5.68,0,0,0-.66-2.77,2.24,2.24,0,0,0-.78-.82c-.55-.35-.58-.6-.15-1.12a4.85,4.85,0,0,1,3-1.69,4.26,4.26,0,0,1,3.59.87,4.44,4.44,0,0,1,1.49,2.5,8.47,8.47,0,0,1,.2,2.09q0,6.66,0,13.32Z"/>
            <path class="cls-39" d="M54.74,123.69a3.08,3.08,0,0,1,1.17-2.39,4,4,0,0,1,3.64-.93,2.64,2.64,0,0,1,2,1.54,2.91,2.91,0,0,1-1,3.35,4,4,0,0,1-4.16.74A2.41,2.41,0,0,1,54.74,123.69Z"/>
          </g>
          <path class="cls-40" d="M89.39,133c0,.1,0,.2,0,.3,0,1.28-.1,2.56-.12,3.83a2,2,0,0,0,1,2,3.71,3.71,0,0,0,4-.42,3.21,3.21,0,0,0,1.55-2.82c0-1.88-.07-3.75-.11-5.62a8.82,8.82,0,0,1,.18-2.38,3.94,3.94,0,0,1,1.32-2.28c.52-.41,1.13-.37,1.36.17a3,3,0,0,1,.26,1.16c0,2.07,0,4.14,0,6.21a4.65,4.65,0,0,0,.82,2.9,3.27,3.27,0,0,0,3.12,1.27,5.51,5.51,0,0,0,4.09-2.65c.38-.56.33-.75-.18-.92a1.87,1.87,0,0,1-1.14-1,5.37,5.37,0,0,1-.49-2.39c0-1.87,0-3.75,0-5.62a5.29,5.29,0,0,0-1-3.31,3,3,0,0,0-2.46-1.26,5.45,5.45,0,0,0-3.44,1.39,8.88,8.88,0,0,0-2.34,3,1.1,1.1,0,0,1-.21.22.85.85,0,0,1-.16-.19c-.13-.3-.23-.62-.38-.91a2.84,2.84,0,0,0-1.72-1.46,4.43,4.43,0,0,0-4.25,1,3.8,3.8,0,0,0-1.27,1.61c-.18.47-.17.51.22.67a1.78,1.78,0,0,1,1,1,6.32,6.32,0,0,1,.45,2.37Z"/>
          <path class="cls-41" d="M78.77,136.84a10.55,10.55,0,0,1-.65,1.55,9.93,9.93,0,0,1-3.44,3.71,7.77,7.77,0,0,1-3.45,1.2,7.19,7.19,0,0,1-3.5-.49A6.87,6.87,0,0,1,64.49,140a8.16,8.16,0,0,1-1.08-2.83,9.77,9.77,0,0,1,.52-5.3,10.19,10.19,0,0,1,2.74-4,10,10,0,0,1,3.23-2,9.08,9.08,0,0,1,3.39-.56,6.74,6.74,0,0,1,3.31.77,3.13,3.13,0,0,1,1.63,3.52,3.85,3.85,0,0,1-2.46,3,4.48,4.48,0,0,1-2.17.08c-.43-.07-.5-.19-.49-.68,0-.19,0-.37,0-.56a2.9,2.9,0,0,0-.23-1.59c-.58-1.15-1.8-.84-2.5.17a5.83,5.83,0,0,0-.88,2.48,7.82,7.82,0,0,0,.33,4,3.07,3.07,0,0,0,3.07,2.18,8.1,8.1,0,0,0,4.4-1.49c.33-.21.64-.47,1-.68C78.25,136.5,79,136,78.77,136.84Z"/>
          <path class="cls-42" d="M87,132.55q0,2.46,0,4.93a3.31,3.31,0,0,1-.85,2.38,4.46,4.46,0,0,1-1.67,1.1,3.55,3.55,0,0,1-2.63.05,1.93,1.93,0,0,1-1.32-1.87c0-.85,0-1.72,0-2.59,0-2,.11-3.91.13-5.85a7,7,0,0,0-.36-2.45A2,2,0,0,0,79.24,127c-.38-.16-.41-.25-.21-.69a4.39,4.39,0,0,1,1.35-1.61,5,5,0,0,1,2.53-1.09,3.26,3.26,0,0,1,3.52,1.92,6,6,0,0,1,.46,2.44Z"/>
          <path class="cls-43" d="M80.78,123a1.12,1.12,0,0,1-1.21-.63,1.47,1.47,0,0,1,.31-1.55,22.41,22.41,0,0,0,2.64-4.66,13.44,13.44,0,0,1,.62-1.34,1.42,1.42,0,0,1,1.4-.72,3.92,3.92,0,0,1,2.27,1.14,1.89,1.89,0,0,1-.09,2.54,27.24,27.24,0,0,1-2,2.23,21.83,21.83,0,0,1-3.29,2.68A4.86,4.86,0,0,1,80.78,123Z"/>
          <g>
            <path class="cls-44" d="M133.18,121.6a9.7,9.7,0,0,1-1.1,4.58,11.5,11.5,0,0,1-3.61,4.25,10.56,10.56,0,0,1-5.28,2,6.67,6.67,0,0,1-4.15-.86,6.11,6.11,0,0,1-2.86-4.25,9.71,9.71,0,0,1,.84-6.1,11.37,11.37,0,0,1,3.08-4,10.83,10.83,0,0,1,2.75-1.68,10.11,10.11,0,0,1,3.1-.77,7.24,7.24,0,0,1,3.52.53,5.86,5.86,0,0,1,2.9,2.68,7.31,7.31,0,0,1,.8,2.62A8.3,8.3,0,0,1,133.18,121.6Zm-11.12,3c.06.43.13,1.25.27,2a3.1,3.1,0,0,0,.82,1.67,1.86,1.86,0,0,0,2.59-.28,4.39,4.39,0,0,0,1.11-2.19,11,11,0,0,0,.07-5.12,3.05,3.05,0,0,0-1.06-1.91,2,2,0,0,0-2.51.56,4.49,4.49,0,0,0-.86,1.64A12.55,12.55,0,0,0,122.05,124.61Z"/>
            <path class="cls-45" d="M140.84,111a12.12,12.12,0,0,1,2.94-.38,5.83,5.83,0,0,1,2.8.54,2.33,2.33,0,0,1,1.27,2.61,3.39,3.39,0,0,1-1.66,2.44,4.73,4.73,0,0,1-3.09.69c-.44,0-.5-.21-.48-.71a8.53,8.53,0,0,0,0-1.27.93.93,0,0,0-1.13-.92,2.07,2.07,0,0,0-1.65,1.23,1.39,1.39,0,0,0,.3,1.7,2.59,2.59,0,0,0,1.39.45c.9.08,1.81.1,2.72.17a6.52,6.52,0,0,1,3.11.88,2.93,2.93,0,0,1,1.29,2.83,5.78,5.78,0,0,1-2.25,4.09,13.13,13.13,0,0,1-3.85,2.23,14.28,14.28,0,0,1-3.7.93,7.74,7.74,0,0,1-3.74-.32,2.3,2.3,0,0,1-1.5-1.61,3.66,3.66,0,0,1,2-3.89,5.2,5.2,0,0,1,2.89-.55c.29,0,.43.19.42.5s0,.7,0,1A1.26,1.26,0,0,0,140,125.1a2.54,2.54,0,0,0,1.41-.35c.94-.52,1.24-1.78.57-2.35a2.63,2.63,0,0,0-1.5-.51c-.81-.08-1.64-.1-2.44-.18a5.45,5.45,0,0,1-3.19-1.23,3.56,3.56,0,0,1-.89-3.82,5.72,5.72,0,0,1,1.39-2.39,10.8,10.8,0,0,1,5-3.09l.26-.07Z"/>
            <path class="cls-46" d="M114.89,126.56q0,2.4,0,4.8a3.65,3.65,0,0,1-.32,1.63,3.69,3.69,0,0,1-1.42,1.54,4.28,4.28,0,0,1-2.79.71,2.06,2.06,0,0,1-2-2.37c0-1.38.1-2.77.13-4.15s.07-2.52.06-3.77a6,6,0,0,0-.5-2.61,1.6,1.6,0,0,0-.91-.84c-.39-.14-.41-.2-.23-.65a4.08,4.08,0,0,1,1.26-1.62,4.91,4.91,0,0,1,3.45-1.3,3,3,0,0,1,2.89,2.34,6.24,6.24,0,0,1,.22,1.81Z"/>
            <path class="cls-47" d="M110.9,111.13a3.34,3.34,0,0,1,3,.63,2.36,2.36,0,0,1,.23,3.05,4.63,4.63,0,0,1-2.78,2.13,3.49,3.49,0,0,1-2.85-.2c-1.28-.74-1.45-2.47-.28-3.91a4.78,4.78,0,0,1,2.37-1.58Z"/>
          </g>
        </g>
      </g>
    </g>
  </g>
</svg>
